<?xml version="1.0" standalone="no"?>
<!DOCTYPE svg PUBLIC "-//W3C//DTD SVG 20010904//EN"
 "http://www.w3.org/TR/2001/REC-SVG-20010904/DTD/svg10.dtd">
<svg version="1.0" xmlns="http://www.w3.org/2000/svg"
 width="1024.000000pt" height="1024.000000pt" viewBox="0 0 1024.000000 1024.000000"
 preserveAspectRatio="xMidYMid meet">

<g transform="translate(0.000000,1024.000000) scale(0.100000,-0.100000)"
fill="#000000" stroke="none">
<path d="M4896 8244 c-19 -18 -20 -38 -6 -65 8 -14 21 -19 50 -19 74 0 70 12
70 -226 0 -228 7 -271 48 -293 34 -18 79 -13 109 13 l28 24 5 239 5 238 55 3
c37 2 59 8 68 19 16 23 15 48 -4 67 -13 14 -47 16 -214 16 -167 0 -201 -2
-214 -16z"/>
<path d="M4635 7995 c-591 -121 -1115 -405 -1513 -819 -394 -410 -653 -905
-761 -1456 -21 -106 -41 -260 -35 -271 2 -3 26 -6 53 -8 58 -2 53 -12 71 129
16 119 61 304 114 467 137 417 354 769 671 1089 223 224 450 387 730 524 249
121 477 198 715 241 63 12 118 23 122 26 24 14 -11 104 -40 102 -9 0 -66 -11
-127 -24z"/>
<path d="M5456 7998 c-9 -12 -16 -37 -16 -54 0 -36 -9 -33 145 -59 340 -57
774 -241 1080 -459 184 -130 442 -373 571 -537 188 -237 363 -562 455 -842 45
-136 95 -338 114 -457 25 -164 18 -150 75 -150 33 0 50 4 51 13 3 28 -2 78
-17 172 -124 786 -581 1497 -1249 1940 -318 211 -677 356 -1065 430 -47 9 -95
18 -107 21 -15 3 -27 -3 -37 -18z"/>
<path d="M5720 7658 c112 -69 159 -103 156 -113 -6 -22 -125 -108 -201 -146
-178 -87 -235 -91 -1086 -86 -651 3 -702 5 -828 25 -74 12 -135 21 -136 19 -7
-8 -126 -577 -134 -640 -15 -110 -13 -279 4 -362 53 -253 267 -435 465 -394
71 15 116 38 162 84 51 51 71 99 76 176 9 139 -82 247 -230 274 -89 17 -212
-54 -241 -138 l-14 -42 -22 69 c-65 210 -13 413 148 576 124 126 236 165 486
172 l130 3 3 -1435 c2 -895 -1 -1477 -7 -1547 -8 -89 -16 -124 -38 -169 -34
-70 -106 -136 -170 -156 l-48 -15 -3 -62 -3 -61 486 0 c481 0 487 0 583 -24
267 -67 448 -73 564 -19 77 36 128 84 165 156 24 45 28 65 29 142 1 50 2 95 3
100 0 6 16 19 35 29 19 10 42 33 51 51 18 32 17 41 -9 106 -5 11 8 25 43 49
74 51 80 67 67 176 -9 76 -3 83 102 118 97 33 165 75 192 118 35 58 27 95 -55
256 -81 158 -129 290 -139 389 -12 111 9 209 105 493 113 337 128 404 136 601
10 272 -43 483 -177 703 -137 226 -319 394 -546 502 -50 24 -106 47 -125 50
-32 6 -30 4 21 -28z m409 -371 c93 -139 163 -295 197 -442 15 -61 19 -116 18
-235 -1 -138 -4 -165 -28 -245 -95 -313 -325 -570 -664 -739 -100 -50 -289
-117 -389 -137 l-63 -13 0 -78 c0 -76 1 -78 25 -78 34 0 277 63 355 93 209 79
409 206 598 382 39 37 72 64 72 61 0 -3 -8 -27 -19 -53 -36 -93 -71 -229 -82
-321 -23 -195 32 -395 173 -634 22 -38 38 -75 34 -83 -9 -25 -66 -54 -159 -82
-55 -17 -98 -36 -114 -52 -25 -25 -25 -29 -19 -118 l6 -91 -27 -20 c-35 -24
-121 -58 -193 -75 -30 -8 -55 -20 -55 -26 0 -7 29 -41 64 -76 l64 -63 -24 -33
c-18 -26 -24 -51 -30 -131 -8 -124 -37 -178 -114 -217 -45 -24 -61 -26 -165
-26 -121 0 -265 26 -286 51 -6 7 -37 23 -69 35 -31 12 -75 37 -96 56 -46 42
-95 137 -109 212 -6 34 -10 587 -10 1542 l0 1489 63 0 c34 -1 130 -5 214 -9
228 -14 356 -51 476 -138 l47 -35 -87 -58 c-274 -182 -431 -400 -508 -704 -26
-106 -42 -247 -23 -206 113 245 205 395 343 565 93 115 230 246 323 310 l73
50 -6 195 c-3 107 -8 245 -11 305 l-5 110 79 -80 c43 -45 102 -116 131 -158z"/>
<path d="M5860 6610 l0 -80 -75 0 -75 0 0 -35 0 -35 76 0 75 0 -3 -27 -3 -28
-72 3 -73 4 0 -36 0 -36 75 0 74 0 3 -92 3 -93 43 -3 42 -3 0 95 0 96 75 0 75
0 0 35 0 35 -75 0 c-73 0 -75 1 -75 25 0 23 3 25 53 25 80 0 97 8 97 41 l0 29
-75 0 -75 0 0 80 0 80 -45 0 -45 0 0 -80z"/>
<path d="M5403 5264 c-29 -13 -53 -28 -53 -34 0 -26 97 -112 164 -146 137 -67
283 -68 423 -3 l68 31 -45 13 c-60 16 -88 31 -130 70 l-35 33 -60 -15 c-55
-15 -65 -15 -116 0 -30 9 -75 30 -100 47 -24 16 -48 29 -54 29 -5 0 -34 -11
-62 -25z"/>
<path d="M3030 6675 c0 -25 4 -35 16 -35 11 0 14 -5 10 -16 -13 -34 -18 -65
-13 -78 5 -11 14 -12 47 -4 34 9 44 8 60 -7 26 -24 25 -60 -2 -79 -31 -22 -42
-20 -82 15 -38 33 -62 35 -80 7 -20 -32 63 -98 124 -98 44 0 93 23 118 55 53
67 3 175 -79 175 -14 0 -19 5 -17 18 3 14 16 18 71 20 67 3 67 3 67 32 l0 30
-120 0 -120 0 0 -35z"/>
<path d="M6980 6656 l-23 -25 29 -37 c16 -20 33 -42 38 -49 7 -9 -2 -26 -27
-56 -43 -49 -45 -59 -16 -85 21 -19 21 -19 63 29 l41 48 45 -46 44 -45 25 24
25 25 -42 45 c-23 25 -42 49 -42 53 0 4 19 27 42 50 l42 43 -26 26 -25 26 -41
-44 -41 -43 -43 43 -44 42 -24 -24z"/>
<path d="M3106 6154 l-50 -55 49 -49 c27 -28 54 -50 60 -50 6 0 33 22 59 49
l49 49 -49 56 c-27 31 -53 55 -59 55 -5 -1 -32 -26 -59 -55z"/>
<path d="M7198 6111 l-46 -49 51 -62 52 -62 47 54 c26 29 48 57 48 61 0 10
-90 107 -99 107 -4 0 -28 -22 -53 -49z"/>
<path d="M7036 5904 c-93 -105 -90 -98 -62 -131 l25 -28 38 38 c21 20 42 37
45 37 3 0 29 -27 58 -60 50 -58 51 -59 35 -84 -16 -24 -16 -27 3 -53 11 -15
34 -41 51 -57 l30 -29 45 49 c25 27 45 53 46 57 0 11 -151 196 -217 266 l-48
50 -49 -55z"/>
<path d="M2782 5837 c-7 -18 -12 -36 -12 -40 0 -11 788 -8 795 3 3 5 -2 23
-12 40 l-17 30 -371 0 -371 0 -12 -33z"/>
<path d="M3106 5634 l-49 -55 54 -55 54 -54 54 55 54 56 -53 54 c-30 30 -57
55 -60 54 -3 0 -27 -25 -54 -55z"/>
<path d="M3758 5492 c-25 -18 -20 -53 12 -70 19 -10 70 -12 212 -9 164 3 190
6 208 22 23 21 25 38 8 53 -8 6 -100 11 -216 14 -162 3 -208 1 -224 -10z"/>
<path d="M3996 5345 c-4 -12 -25 -15 -99 -15 -81 0 -99 -3 -127 -22 -18 -13
-39 -32 -46 -43 -11 -18 -9 -24 18 -54 30 -33 31 -34 45 -15 36 50 43 54 94
54 45 0 50 -2 44 -19 -3 -11 -15 -52 -26 -93 -24 -85 -84 -217 -128 -282 -17
-24 -31 -47 -31 -50 0 -3 46 -6 103 -7 56 0 135 -4 175 -8 l74 -7 29 42 c34
50 35 60 10 74 -27 14 -41 13 -41 -4 0 -19 -41 -27 -127 -24 l-71 3 18 30 c45
74 107 267 134 423 5 29 3 32 -18 32 -13 0 -26 -7 -30 -15z"/>
<path d="M3215 5261 c-112 -69 -130 -215 -36 -294 69 -57 163 -58 237 -2 106
81 77 257 -49 304 -44 17 -118 13 -152 -8z"/>
<path d="M6875 5260 c-71 -35 -107 -117 -91 -205 9 -48 68 -112 116 -126 116
-35 240 53 240 169 0 138 -140 224 -265 162z"/>
<path d="M2113 5223 c-12 -2 -36 -17 -53 -33 -25 -24 -30 -36 -30 -75 0 -57
29 -109 68 -122 15 -5 132 -7 260 -5 l232 4 0 114 0 114 -199 0 c-109 0 -211
2 -227 4 -16 2 -39 2 -51 -1z"/>
<path d="M7878 5223 l-208 -3 0 -114 0 -114 228 -4 c254 -5 279 0 312 54 28
46 26 99 -5 137 -40 46 -50 48 -327 44z"/>
<path d="M2670 5110 l0 -50 100 0 100 0 0 50 0 50 -100 0 -100 0 0 -50z"/>
<path d="M7390 5110 l0 -50 100 0 100 0 0 50 0 50 -100 0 -100 0 0 -50z"/>
<path d="M2348 4793 c-19 -3 -28 -10 -28 -23 0 -23 29 -162 35 -168 2 -2 27 4
55 14 59 21 58 14 25 162 -6 23 -20 25 -87 15z"/>
<path d="M7827 4794 c-2 -5 -8 -31 -11 -59 -24 -170 -101 -431 -183 -625 -70
-164 -68 -147 -23 -170 22 -11 44 -20 50 -20 13 0 88 157 130 271 64 173 140
477 140 562 0 30 -4 37 -19 37 -10 0 -32 3 -49 6 -16 3 -32 2 -35 -2z"/>
<path d="M3111 4714 l-53 -56 56 -56 56 -57 55 56 55 55 -58 57 -57 57 -54
-56z"/>
<path d="M6997 4663 c-3 -5 -2 -23 0 -40 l5 -33 113 0 113 0 6 31 c3 17 3 35
0 40 -6 11 -231 12 -237 2z"/>
<path d="M3790 4604 c0 -81 -89 -439 -140 -565 l-28 -69 215 0 214 0 15 35 c7
19 14 39 14 45 0 6 -57 10 -160 10 l-161 0 15 28 c22 42 69 208 105 367 18 77
34 148 37 158 5 15 -2 17 -60 17 -65 0 -66 -1 -66 -26z"/>
<path d="M2428 4493 c-27 -9 -48 -20 -48 -26 0 -19 59 -193 100 -298 154 -388
370 -719 665 -1015 342 -344 679 -548 1155 -702 143 -46 332 -90 424 -99 62
-6 63 -6 75 25 16 38 6 71 -22 77 -12 2 -71 14 -132 25 -321 61 -681 202 -948
372 -240 153 -518 402 -677 608 -228 295 -412 644 -500 950 -15 52 -31 95 -36
96 -5 2 -30 -4 -56 -13z"/>
<path d="M7211 4416 c-35 -46 -78 -99 -96 -116 l-33 -32 -30 58 c-16 33 -37
83 -47 112 -11 28 -25 52 -32 52 -7 0 -27 -13 -44 -28 l-31 -28 27 -55 c15
-29 43 -78 61 -107 19 -29 34 -56 34 -61 0 -5 -22 -26 -50 -47 -27 -21 -50
-41 -50 -44 1 -10 38 -50 48 -50 5 0 31 17 58 38 l48 39 55 -33 c83 -48 93
-49 114 -12 10 17 16 31 15 32 -77 31 -139 83 -111 93 6 2 53 49 104 104 l92
101 -34 34 -34 34 -64 -84z"/>
<path d="M2780 4414 c0 -9 7 -28 16 -42 l15 -27 362 3 c361 3 362 3 379 25 22
28 22 43 2 51 -9 3 -186 6 -395 6 -340 0 -379 -2 -379 -16z"/>
<path d="M3106 4174 l-49 -54 54 -55 54 -55 52 52 c29 29 53 55 53 59 0 13
-92 109 -103 108 -7 -1 -34 -25 -61 -55z"/>
<path d="M7026 3856 c-48 -18 -99 -67 -94 -90 3 -15 8 -14 37 9 26 19 47 25
83 25 41 0 54 -5 87 -36 55 -49 75 -106 69 -192 -12 -164 -126 -290 -340 -375
-237 -95 -570 -97 -949 -6 -69 16 -217 62 -330 100 -481 166 -561 192 -689
224 -205 52 -340 68 -500 62 -205 -8 -333 -52 -435 -148 -159 -150 -164 -377
-11 -494 42 -32 107 -57 119 -45 5 4 -7 29 -27 54 -61 80 -70 150 -32 233 67
142 259 178 526 97 126 -38 225 -81 541 -234 304 -147 412 -195 549 -242 205
-69 374 -99 574 -99 76 0 137 -1 135 -4 -3 -2 -58 -25 -123 -50 -152 -60 -437
-137 -601 -164 -185 -30 -175 -27 -175 -62 0 -46 16 -69 50 -69 44 0 282 46
411 79 147 38 374 117 509 176 142 62 425 212 535 283 304 196 472 464 438
697 -18 123 -78 217 -167 259 -52 25 -141 30 -190 12z"/>
<path d="M3127 3854 c-4 -4 -7 -29 -7 -56 l0 -48 -40 0 c-38 0 -40 -2 -40 -30
0 -28 2 -30 39 -30 37 0 39 -2 45 -37 3 -21 6 -53 6 -70 l0 -33 79 0 79 0 -2
33 c-1 30 -4 32 -44 35 -40 3 -42 4 -42 37 0 33 1 34 48 37 43 3 47 5 50 31 3
26 2 27 -42 27 -49 0 -48 -2 -50 70 -1 33 -3 35 -36 38 -20 2 -39 0 -43 -4z"/>
<path d="M5045 2726 c-13 -13 -26 -39 -30 -57 -3 -19 -5 -152 -3 -297 l3 -263
154 0 c162 0 171 2 171 47 0 33 -20 44 -82 44 l-58 0 0 246 0 246 -29 29 c-38
38 -91 40 -126 5z"/>
</g>
</svg>
